<svg xmlns="http://www.w3.org/2000/svg" width="154" height="154" viewBox="0 0 154 154" fill="none">
  <path d="M79.3337 122.732H74.667V127.166H79.3337V122.732Z" fill="#F2622E"/>
  <path d="M74.667 110.367L75.8337 120.867H78.167L79.567 110.367V104.533H74.667V110.367Z" fill="#F2622E"/>
  <path d="M21.6999 86.5663V149.333C21.6999 150.733 22.6332 151.666 24.0332 151.666H129.967C131.367 151.666 132.3 150.733 132.3 149.333V86.5663C159.133 75.133 156.1 35.933 127.633 28.933C125.067 13.7663 111.533 2.33301 95.6665 2.33301C82.8332 2.33301 71.3999 9.56634 66.0332 21.233C56.9332 19.3663 46.6665 21.6997 38.9665 28.933C37.0999 28.6997 35.2332 28.4663 33.3665 28.4663C16.5665 28.4663 3.0332 41.9997 3.0332 58.7997C3.0332 70.933 10.4999 81.8997 21.6999 86.5663ZM90.0665 57.8663H127.633V69.7663H90.0665V57.8663ZM85.3999 69.7663H26.3665V57.8663H85.3999V69.7663ZM127.633 147H26.3665C26.3665 128.333 26.3665 93.0997 26.3665 74.433C47.3665 74.433 94.0332 74.433 127.633 74.433C127.633 93.0997 127.633 128.333 127.633 147ZM33.5999 32.8997C35.6999 32.8997 37.5665 33.133 39.4332 33.5997C40.1332 33.833 41.0665 33.5997 41.5332 32.8997C48.5332 25.8997 58.5665 23.7997 66.7332 26.133C67.8999 26.3663 69.0665 25.8997 69.5332 24.733C73.9665 13.9997 84.2332 6.99967 95.6665 6.99967C109.667 6.99967 121.567 17.4997 123.2 31.2663C123.433 32.1997 124.133 33.133 125.067 33.3663C148.867 37.7997 154 70.233 132.067 81.433C132.067 78.8663 132.067 90.9997 132.067 55.533C132.067 54.133 131.133 53.1997 129.733 53.1997C94.4999 53.1997 59.2665 53.1997 23.7999 53.1997C22.3999 53.1997 21.4665 54.133 21.4665 55.533C21.4665 58.0997 21.4665 45.9663 21.4665 81.433C13.0665 76.9997 7.46654 68.133 7.46654 58.5663C7.69987 44.5663 19.3665 32.8997 33.5999 32.8997Z" fill="#F2622E"/>
  <path d="M123.666 42.4672C132.766 44.1006 138.599 53.2006 136.499 62.0672C136.266 63.2339 136.966 64.6339 138.366 64.8672C139.532 65.1006 140.932 64.4006 141.166 63.0006C143.732 51.3339 136.266 39.9006 124.599 37.5672C123.432 37.3339 122.032 38.2672 121.799 39.4339C121.566 41.0672 122.266 42.2339 123.666 42.4672Z" fill="#F2622E"/>
  <path d="M75.3665 29.3993C76.5332 29.866 77.9332 29.166 78.3999 27.9993C81.1999 20.9993 87.9665 16.3327 95.6665 16.3327C97.0665 16.3327 97.9999 15.3993 97.9999 13.9993C97.9999 12.5993 97.0665 11.666 95.6665 11.666C86.0999 11.666 77.4665 17.4993 73.9665 26.366C73.7332 27.766 74.1999 28.9327 75.3665 29.3993Z" fill="#F2622E"/>
  <path d="M48.2986 39.4326C52.732 34.7659 59.2653 33.5993 64.3986 34.9993C65.5653 35.4659 66.9653 34.5326 67.1986 33.3659C67.6653 32.1993 66.732 30.7993 65.5653 30.5659C58.7986 28.6993 50.632 30.3326 44.7986 36.1659C43.8653 37.0993 43.8653 38.4993 44.7986 39.4326C45.9653 40.3659 47.3653 40.3659 48.2986 39.4326Z" fill="#F2622E"/>
  <path d="M14.6995 60.8992C16.0995 60.8992 17.0329 59.9659 17.0329 58.5659C17.0329 52.7326 20.0662 47.3659 25.1995 44.3326C26.3662 43.6326 26.5995 42.2326 26.1329 41.0659C25.4329 39.8992 24.0329 39.6659 22.8662 40.1326C16.5662 44.3326 12.3662 51.3326 12.3662 58.5659C12.3662 59.9659 13.5329 60.8992 14.6995 60.8992Z" fill="#F2622E"/>
  <path d="M100.8 61.6006H96.1338V66.2673H100.8V61.6006Z" fill="#F2622E"/>
  <path d="M111.3 61.6006H106.634V66.2673H111.3V61.6006Z" fill="#F2622E"/>
  <path d="M121.566 61.6006H116.899V66.2673H121.566V61.6006Z" fill="#F2622E"/>
  <path d="M77.4665 61.6006H34.5332V66.2673H77.4665V61.6006Z" fill="#F2622E"/>
  <path d="M79.0991 87.7338C78.3991 86.1005 75.599 86.1005 74.899 87.7338L52.9657 131.6C52.4991 132.3 52.7324 133.234 52.9657 133.934C53.4324 134.634 54.1324 135.1 55.0657 135.1H98.9324C99.6324 135.1 100.566 134.634 101.032 133.934C101.499 133.234 101.499 132.3 101.032 131.6L79.0991 87.7338ZM58.7991 130.434L76.9991 94.0338L95.1991 130.434H58.7991Z" fill="#F2622E"/>
</svg>